<svg xmlns="http://www.w3.org/2000/svg" viewBox="0 0 240 80"><g fill="#FFF" fill-rule="evenodd"><path d="M40 1a39 39 0 1 1 0 78 39 39 0 0 1 0-78Zm0 2a37 37 0 1 0 0 74 37 37 0 0 0 0-74Z"/><path d="M36.9 61.4c1.8 0 2.9 1 2.9 2.6s-1.1 2.6-2.9 2.6c-1.8 0-2.9-1-2.9-2.6-.1-1.7 1-2.6 2.9-2.6Zm-6.2 0c1.2 0 2.4.5 2.4 1.5 0 .8-.8 1.3-1.9 1.6-.9.3-1.6.6-1.7 1h3.7v.9h-5.1v-.5c.1-.9 1-1.7 2.4-2.1.8-.3 1.4-.4 1.4-.9 0-.4-.6-.6-1.3-.6-.7 0-1.4.3-1.8.8l-.7-.6a3 3 0 0 1 2.6-1.1Zm12.4 0c1.1 0 2.3.5 2.3 1.5 0 .8-.8 1.3-1.9 1.6-.9.3-1.6.6-1.7 1h3.7v.9h-5.1v-.5c.1-.9 1-1.7 2.4-2.1.8-.3 1.4-.4 1.4-.8s-.6-.6-1.3-.6c-.7 0-1.4.3-1.8.8l-.7-.6c.8-.9 1.7-1.3 2.7-1.2Zm5.9 0c1.1 0 2.3.5 2.3 1.5 0 .8-.8 1.3-1.9 1.6-.9.3-1.6.6-1.7 1h3.7v.9h-5v-.5c.1-.9 1-1.7 2.4-2.1.8-.3 1.4-.4 1.4-.8s-.6-.6-1.3-.6c-.7 0-1.4.3-1.8.8l-.7-.6c.7-.9 1.6-1.3 2.6-1.2Zm-12.1.9c-1.1 0-1.8.5-1.8 1.6s.7 1.6 1.8 1.6 1.8-.5 1.8-1.6c0-1-.7-1.6-1.8-1.6Zm3.7-10.6.8 2.1 2.2.1-1.8 1.4.6 2.1-1.9-1.2-1.9 1.2.6-2.1-1.8-1.4 2.2-.1 1-2.1Zm-7.9.6.7 1.7 1.9.1-1.5 1.2.5 1.8-1.6-1-1.6 1 .5-1.8-1.5-1.2L32 54l.7-1.7Zm15.6 0L49 54l1.9.1-1.5 1.2.5 1.8-1.6-1-1.6 1 .5-1.8-1.5-1.2 1.9-.1.7-1.7Zm-22.7.7.5 1.4 1.5.1-1.2.9.4 1.4-1.2-.8-1.2.8.4-1.4-1.2-.9 1.5-.1.5-1.4Zm29.8 0 .5 1.4 1.5.1-1.2.9.4 1.4-1.2-.8-1.2.8.4-1.4-1.2-.9 1.5-.1.5-1.4Zm-28-2.7-2.4.1-5.8.4-1.9.2h-.1l-5.8.5-1.9.2h.1c1-.1 7.8-.9 17.4-1.3l.4-.1Zm11.5-1.2h1.6l7.8.2 6.1.3 1.5.1h.2l3.9.3 3.9.4c2.2.3 4.3.5 6.4.9l1.3.2v.1l-5-.5-1.7-.1-1.1-.1h-.2l-5.7-.4-1.9-.1-2.3-.1c10 .5 17.1 1.3 17.7 1.4l-1.3-.2c-2.5-.3-8.4-.9-16-1.2h-.5l-7.8-.3h-9.4c-3.2 0-6.3.2-9.2.3-8.5.4-14.9 1.1-17.1 1.3l-.7.1h-.1v-.1l6.1-1 1.5-.2h.2l2.5-.3 1.3-.1h.1l3.7-.3 2.3-.2 1.2-.1h.4l2-.1 1.9-.1 4.7-.1h1.7Zm9.9-7.2-1.1.5c-.4-.6-1-.9-1.7-.8-1.2 0-2 .6-2 1.7s.8 1.7 2 1.7c.7.1 1.3-.3 1.7-.8l1.1.5c-.7.9-1.7 1.4-2.8 1.3-1.9 0-3.2-1-3.2-2.7 0-1.7 1.2-2.7 3.2-2.7 1.1 0 2.2.5 2.8 1.3Zm-31-1.3c2 0 3.2 1 3.2 2.7 0 1.7-1.2 2.7-3.2 2.7s-3.2-1-3.2-2.7c0-1.7 1.2-2.7 3.2-2.7Zm56.3.8-.6.8c-.6-.4-1.3-.6-2.1-.6-.7 0-1.5.1-1.5.6s.7.5 1.8.5c1.6.1 2.8.5 2.8 1.6 0 1-1 1.7-2.8 1.7a5 5 0 0 1-3.1-1l.7-.8c.7.6 1.6.9 2.5.8 1 0 1.6-.2 1.6-.6 0-.4-.5-.5-1.7-.6-1.5-.1-2.8-.4-2.8-1.5s1.1-1.6 2.7-1.6c.7-.1 1.7.1 2.5.7Zm-6.6 0-.6.8a4 4 0 0 0-2.1-.6c-.7 0-1.5.1-1.5.6s.7.5 1.8.5c1.6.1 2.8.5 2.8 1.6 0 1-1 1.7-2.8 1.7-1.1 0-2.3-.3-3.1-1l.7-.8c.7.6 1.6.9 2.5.8 1 0 1.6-.2 1.6-.6 0-.4-.5-.5-1.7-.6-1.5-.1-2.8-.4-2.8-1.5s1.1-1.6 2.7-1.6c.8-.1 1.7.1 2.5.7Zm-37.1-.6v4.1H34v1h-4.8v-5.1h1.2Zm-4.6 0c1.3 0 2.2.6 2.2 1.7 0 .8-.6 1.5-1.4 1.6l1.6 1.8h-1.4l-1.5-1.7h-1.9v1.7h-1.2v-5.1h3.6Zm-19.3 0 1.3 3.8 1.4-3.8h1.1l1.4 3.8 1.3-3.8h1.2l-1.9 5.1H11L9.7 42l-1.4 3.9H7.2l-1.9-5.1h1.2Zm31.2 0c1.9 0 3.2 1 3.2 2.6S39.7 46 37.7 46H35v-5.1h2.7v-.1Zm13.3 0v4.1h3.6v1h-4.8v-5.1H51Zm7.9 0 2.7 5.1h-1.3l-.5-1.1h-3.1l-.5 1.1H55l2.7-5.1h1.2Zm-41.1.8c-1.3 0-2.1.6-2.1 1.7s.8 1.7 2.1 1.7 2.1-.6 2.1-1.7c0-1-.8-1.7-2.1-1.7Zm19.8.1h-1.5v3.1h1.5c1.2 0 2.1-.5 2.1-1.6 0-1-.8-1.5-2.1-1.5Zm20.7.1-1.1 2.1h2.1l-1-2.1Zm-32.5-.1h-2.3v1.4h2.3c.6 0 1.1-.1 1.1-.7-.1-.5-.5-.7-1.1-.7Zm40.7-9c.5 0 1 .2 1.3.5l-.5.3c-.2-.2-.6-.4-.9-.3-.7 0-1.1.3-1.1.9 0 .6.4.9 1.1.9.3 0 .7-.1.9-.3v-.3h-1v-.5h1.5v.9c-.4.4-.9.7-1.5.6-1 0-1.7-.5-1.7-1.4.2-.8.8-1.3 1.9-1.3Zm-58.9 0c1 0 1.6.5 1.6 1.4 0 .8-.6 1.4-1.6 1.4S6 34.9 6 34.1c0-.9.6-1.4 1.6-1.4Zm63.6.4-.3.4a2 2 0 0 0-1.1-.3c-.4 0-.8.1-.8.3 0 .2.4.2.9.3.8.1 1.4.2 1.4.8 0 .5-.5.9-1.4.9-.6 0-1.2-.2-1.6-.5l.3-.4c.3.3.8.5 1.3.4.5 0 .8-.1.8-.3 0-.2-.3-.3-.9-.3-.7-.1-1.4-.2-1.4-.8 0-.6.6-.8 1.4-.8.5-.2 1 0 1.4.3ZM19 32.7c.5 0 1.1.2 1.4.7l-.5.3a1 1 0 0 0-.8-.4c-.6 0-1 .3-1 .9 0 .6.4.9 1 .9.3 0 .6-.1.8-.3l.1-.1.5.3a2 2 0 0 1-1.4.7c-1 0-1.6-.5-1.6-1.4 0-.9.5-1.6 1.5-1.6Zm-2.3.1v2.5h-.6v-2.5h.6Zm-4.2 0v.5h-2v.6h1.7v.5h-1.7v1h-.6v-2.5h2.6v-.1Zm36 0v.5h-2.1v.5h1.7v.5h-1.7v.6h2.1v.5h-2.7v-2.5h2.7v-.1Zm6.9 0 1.4 2.5h-.6l-.3-.5h-1.6l-.3.5h-.6l1.4-2.5h.6Zm-21.7 0v2.5h-.6v-2.5h.6Zm-18.1 0v.5h-2v.6h1.7v.5h-1.7v1H13v-2.5h2.6v-.1Zm5.9 0v2.5h-.6v-2.5h.6Zm30.3 0c.6 0 1.1.3 1.1.8 0 .4-.3.7-.7.8l.8.9h-.7l-.7-.9h-.9v.9h-.6v-2.5h1.7Zm-27.8 0 1.4 2.5h-.6l-.3-.5h-1.6l-.3.5H22l1.4-2.5h.6Zm12.2 0c.6 0 1.1.3 1.1.8 0 .4-.3.7-.7.8l.8.9h-.7l-.7-.9h-1v.9h-.6v-2.5h1.8Zm23.3 0v.5h-1.1v2h-.6v-2h-1.1v-.5h2.8Zm1 0v2.5h-.6v-2.5h.6Zm-19 0v2.5h-.6v-2.5h.6Zm1.3 0 1.7 1.7v-1.7h.6v2.5h-.5l-1.9-1.8v1.8h-.6v-2.5h.7Zm19.1 0 1.8 1.7v-1.7h.6v2.5h-.5l-1.9-1.8v1.8h-.6v-2.5h.6Zm-23.4 0v2h1.8v.5h-2.4v-2.5h.6Zm-7.2 0 1.4 2.5H32l-.3-.5h-1.6l-.3.5h-.6l1.4-2.5h.7Zm-4.9 0v2h1.8v.5h-2.4v-2.5h.6Zm-18.8.4c-.6 0-1 .3-1 .9 0 .6.4.9 1 .9s1-.3 1-.9c.1-.6-.3-.9-1-.9Zm23.4 0-.5 1.1h1.1l-.6-1.1Zm24.1 0-.5 1.1h1.1l-.6-1.1Zm-31.5 0-.5 1.1h1.1l-.6-1.1Zm28.2 0h-1.1v.8h1.1c.3 0 .5-.1.5-.4 0-.3-.2-.4-.5-.4Zm-15.6 0H35v.8h1.1c.3 0 .5-.1.5-.4.1-.3-.1-.4-.4-.4Zm36.8-.4.4.5.4-.5h.2v.9h-.2v-.6l-.4.5-.4-.5v.6h-.2v-.9h.2Zm-.3 0v.2h-.4v.7h-.2V33h-.4v-.2h1Zm-32.8-9c3.1.1 6.2.4 9.2.9l2.3.4 2.3.5 4.3.9v.7l-4.5-1.1-2.2-.5-2.2-.5c-3-.6-6-.9-9.1-1H21.6v-.4h9.2l9.1.1Zm5.3-7.6 1.8 2 1.8-2h1.5L47.8 19l2.6 2.9h-1.6l-1.8-2-1.8 2h-1.5l2.6-2.9-2.6-2.8h1.5Zm-11.4 0c1.5 0 2.4.7 2.4 1.9 0 1.3-1 1.9-2.4 1.9h-2.6v1.8h-1.3v-5.7h3.9v.1Zm-7.7 0 3 5.7h-1.4l-.6-1.2h-3.4l-.6 1.2h-1.4l3-5.7h1.4Zm16.9 0v1.1h-4.5v1.2h3.8v1.1h-3.8v1.3h4.6V22h-5.9v-5.7l5.8-.1Zm10.5 0 .4.1-.1-.1-.1-.1-.2.1.4.1.8 1.2v-.1h.5v.6H55l.4.7 1.2.1h-1.3l-.4-.8.5.7 1.4.1.8.2.1.1.1.1v.1l-.2.1-.3.1-.4.1h-1.7l-.4.7h.2l.2-.1v.3h-.5v.1l-.7 1-.1.1-.4.1.4-.8.1-.1v-.1l.1-.1v-.1l.1-.3.1-.2v-.6h-.6l-1.4-.1-.1.2-.2.3-.3.1-.1.1h-.2l.1-.3.1-.2.1-.3v-.1l-.1-.1h.2l-.3-.8h-.1.2l.1.1.1.1.3.4.1.1h-.1l-.4-.5-.1-.1.1.2.4.5h.1l1.1-.1h1-1.2 1.1v-1l-.1-.2v-.2l-.1-.3v-.1l-.1-.1V17l-.2-.4c-.2-.1-.3-.3-.2-.4-.1.1-.1 0 0 0Zm-28.1 1.1-1.2 2.3h2.4l-1.2-2.3Zm8.3 0h-2.5V19h2.5c.7 0 1.2-.2 1.2-.8 0-.6-.5-.9-1.2-.9ZM58 10.7v.7l-4.3 1-2.3.5-2.3.4c-2.7.5-5.4.8-8.2.9H21.5v-.5h18.4a56.3 56.3 0 0 0 11.3-1.5l1.5-.3.7-.2 4.6-1Z"/><path fill-rule="nonzero" d="M120.9 13.4c1 0 1.7.2 2.3.5l-.6 1.3a2 2 0 0 0-1.6-.8c-1 0-1.7.5-2.3 1.6-.4.7-.7 1.5-.8 2.4-.2 1.3-.1 2.3.2 3 .3.7.9 1.1 1.7 1.1l1-.3 1.1-1 .4 1.2-1.2.6-1.3.3c-1.4 0-2.5-.4-3.2-1.4-.6-.9-.8-2-.6-3.5.2-1.5.8-2.7 1.7-3.6.9-.9 2-1.4 3.2-1.4ZM94.4 9.9c1.1 0 2.1.3 2.9 1 .8.6 1.3 1.4 1.7 2.4.3 1 .4 2.1.3 3.3a7.9 7.9 0 0 1-2.4 4.9 6.3 6.3 0 0 1-4.5 1.7c-1.8 0-3.2-.7-4-2.2-.7-1.2-1-2.7-.7-4.4.2-1.2.6-2.3 1.2-3.3s1.4-1.8 2.3-2.4c1-.6 2-1 3.2-1Zm37.4 3.5c1.1 0 1.8.3 2.2.8.4.5.5 1.1.4 2.1l-.7 4.9c-.1.6-.1 1.3.2 1.8h-1.7c-.1-.2-.2-.5-.2-1.1a3 3 0 0 1-1.3.9c-.6.3-1.1.4-1.5.4-.8 0-1.4-.2-1.7-.7-.3-.4-.4-1-.3-1.7.1-.8.6-1.5 1.3-2.1l2-1.1.5-.2 1.2-.7c.4-.3.7-.7.7-1.1.1-.4 0-.7-.3-1-.2-.3-.6-.4-1-.4-.7 0-1.4.4-2.3 1.4l-.4-1.2c.9-.7 1.9-1 2.9-1ZM111.9 10c1.1 0 1.9.2 2.6.7l-.7 1.2c-.1-.3-.4-.5-.7-.7a2 2 0 0 0-1.1-.3c-.6 0-1.2.1-1.6.3-.5.2-.7.6-.8 1l-.2 1.3h5.7l-1 7.4c-.1.9-.1 1.6.2 2.1h-1.7c-.4-.3-.5-1-.3-2l.9-6.5h-4l-.9 6.5c-.1.8-.1 1.5.2 2h-1.7c-.3-.4-.3-1.1-.2-2l.9-6.5h-3.8l-.9 6.5c-.1.8 0 1.4.2 2h-1.7c-.3-.4-.3-1.1-.2-2l.9-6.5h-.5c-.5 0-.9-.3-1.1-1h1.7l.2-1.2c.1-.8.6-1.4 1.5-1.8.7-.3 1.6-.5 2.6-.5 1.1 0 1.9.2 2.6.7.8-.5 1.8-.7 2.9-.7Zm14.7 3.5-1 7.4c-.1.8 0 1.5.2 2.1h-1.7c-.3-.3-.4-1-.2-2.1l1-7.4h1.7Zm11.9-3.3c.4.3.5 1 .3 2l-1.2 8.7c-.1.8-.1 1.4.2 2.1H136c-.3-.3-.3-1-.2-2.1l1.2-8.7c.1-.9.1-1.6-.2-2h1.7Zm-44.3 1c-1.4 0-2.5.7-3.3 2.2a9 9 0 0 0-1.1 3.4c-.2 1.6-.1 2.8.3 3.8.5 1.1 1.3 1.7 2.6 1.7s2.4-.7 3.2-2.1c.5-1.1.8-2.2 1-3.4a8 8 0 0 0-.3-3.9c-.5-1.2-1.3-1.7-2.4-1.7Zm38.3 6-2.5 1.6c-.7.5-1.1 1.1-1.2 1.9-.1.5 0 .9.3 1.2.2.3.5.4.9.4.6 0 1.3-.5 2-1.4l.5-3.7Zm-26.1-6.3c-.6 0-1.2.1-1.6.3-.5.2-.7.6-.8 1l-.2 1.3h3.8l.2-1.2.2-.7-.7-.5-.9-.2Zm19.9-1c.3 0 .5.1.7.3.2.2.2.4.2.7 0 .3-.2.5-.4.7-.3.2-.5.3-.8.3a1 1 0 0 1-.7-.3c-.2-.2-.2-.4-.2-.7 0-.3.2-.5.4-.7.2-.2.5-.3.8-.3ZM91.2 59l5.4-22.1-.9 22.1h4.7l7.4-29.4h-3.9l-5 22.6.7-22.6h-4.1l-5.7 22.6 1.4-22.6h-3.9l-.4 14.7-.4 14.7h4.7Zm19.9.4a7 7 0 0 0 2.7-.4c.7-.3 1.3-.6 1.8-1.1.5-.5.9-1 1.1-1.7l.5-2.1 2.8-19.7v-2.1c-.1-.6-.3-1.2-.7-1.7-.4-.5-.9-.8-1.5-1.1-.7-.3-1.5-.4-2.6-.4a7 7 0 0 0-2.7.4c-.7.3-1.3.6-1.8 1.1-.5.5-.9 1-1.1 1.7-.3.6-.4 1.3-.5 2.1l-2.8 19.7v2.1c.1.6.3 1.2.7 1.7.3.5.9.8 1.5 1.1.7.3 1.6.4 2.6.4Zm.5-3.5c-.6 0-.9-.2-1.1-.5-.2-.3-.3-.8-.2-1.3l2.8-19.7c.1-.5.2-.9.5-1.3.3-.3.7-.5 1.3-.5.6 0 .9.2 1.1.5.2.3.2.8.2 1.3l-2.8 19.7c-.1.6-.3 1-.5 1.3-.2.3-.7.5-1.3.5Zm12 3.1 1.7-12.4h.6a910.6 910.6 0 0 0 1.8 12.4h4.2l-1.2-6.3-1.2-6.3a4 4 0 0 0 2.4-1.7 8 8 0 0 0 1-3.1l1-7 .1-2.1c0-.7-.2-1.1-.5-1.6s-.8-.8-1.4-1c-.6-.2-1.4-.4-2.4-.4h-5.9L119.7 59h3.9Zm3.9-16h-1.7l1.3-9.7h1.6c1 0 1.4.5 1.2 1.5l-.9 6.7-.4 1.1c-.2.3-.6.4-1.1.4Zm14.1 16 .5-3.7h-4l3.6-25.7h-3.9L133.6 59h8Zm7.8 0c1 0 1.9-.1 2.6-.3a4 4 0 0 0 2.7-2.6l.5-2.2 2.7-19.1.1-2.1c-.1-.6-.3-1.2-.6-1.6a3 3 0 0 0-1.4-1c-.6-.2-1.5-.4-2.5-.4h-5.7L143.6 59h5.8Zm.3-3.7H148l3.1-22h1.7c1 0 1.4.5 1.2 1.5l-2.6 19.1-.4 1.1c-.4.2-.7.3-1.3.3Zm19.1 4.1c1 0 1.9-.1 2.6-.4.7-.3 1.3-.6 1.8-1.1.5-.5.9-1 1.1-1.7l.5-2.1.5-4h-3.8L171 54c-.1.6-.3 1-.5 1.3-.3.3-.7.5-1.2.5s-.9-.2-1.1-.5c-.2-.3-.3-.8-.2-1.3l2.8-19.7c.1-.5.2-.9.5-1.3.3-.3.7-.5 1.3-.5.6 0 .9.2 1.1.5.2.3.2.8.2 1.3l-.5 3.5h3.8l.5-3.5v-2.1a3.5 3.5 0 0 0-2.2-2.8 6 6 0 0 0-2.5-.4 7 7 0 0 0-2.7.4c-.7.3-1.3.6-1.8 1.1-.5.5-.9 1-1.1 1.7a8 8 0 0 0-.5 2.1L164 54.2v2.1c.1.6.3 1.2.7 1.7.4.5.9.8 1.5 1.1.6.2 1.5.3 2.6.3ZM185 59l.5-3.7h-4l3.6-25.7h-3.9L177 59h8Zm4.5 0 1.4-6h3.3l-.3 6h3.9l.5-29.4h-5L185.5 59h4Zm4.7-9.7h-2.5l1.6-7.5 1.7-7.5-.5 7.5-.3 7.5Zm10.3 10.1c2 0 3.5-.5 4.5-1.5.9-1 1.5-2.2 1.7-3.7l.5-3.4c.2-1.7.2-3 0-4.1-.2-1-.5-1.9-.9-2.5-.4-.6-.9-1.2-1.4-1.6l-1.5-1.3c-.4-.5-.8-1-1-1.7-.2-.7-.3-1.6-.1-2.8l.3-2.4c.1-.5.2-.9.5-1.2.3-.3.7-.5 1.2-.5.6 0 1 .2 1.1.5.2.3.2.7.2 1.2L209 38h3.9l.5-3.6v-2.1c-.1-.6-.3-1.2-.7-1.7-.3-.5-.9-.8-1.5-1.1-.7-.3-1.5-.4-2.5-.4s-1.9.1-2.6.4c-.7.3-1.3.6-1.8 1.1a5 5 0 0 0-1.1 1.7c-.3.6-.5 1.3-.6 2.1l-.4 2.6a10 10 0 0 0 0 3.5 6.4 6.4 0 0 0 2.5 3.7l1.5 1.4c.4.5.8 1.2 1 2 .2.8.3 1.9.1 3.2l-.5 3.3-.5 1.3c-.2.4-.7.5-1.3.5-.6 0-.9-.2-1.1-.5-.2-.3-.2-.8-.1-1.3l.5-4h-3.9l-.5 4v2.1c.1.6.3 1.2.7 1.7.3.5.9.8 1.5 1.1.6.3 1.4.4 2.4.4Zm13.1 0c2 0 3.5-.5 4.5-1.5a6 6 0 0 0 1.7-3.7l.5-3.4c.2-1.7.2-3 0-4.1a6.6 6.6 0 0 0-2.3-4.1l-1.5-1.3c-.4-.5-.8-1-1-1.7-.2-.7-.3-1.6-.1-2.8l.3-2.4c.1-.5.2-.9.5-1.2.3-.3.7-.5 1.2-.5.6 0 1 .2 1.1.5.2.3.2.7.2 1.2l-.5 3.6h3.9l.5-3.6v-2.1c-.1-.6-.3-1.2-.7-1.7-.4-.5-.9-.8-1.5-1.1-.7-.3-1.5-.4-2.5-.4s-1.9.1-2.6.4c-.7.3-1.3.6-1.8 1.1a5 5 0 0 0-1.1 1.7c-.3.6-.5 1.3-.6 2.1l-.4 2.6a10 10 0 0 0 0 3.5c.2.8.6 1.6 1 2.2.4.6.9 1.1 1.5 1.5l1.5 1.4c.4.5.8 1.2 1 2 .2.8.3 1.9.1 3.2l-.5 3.3-.5 1.3c-.2.4-.7.5-1.3.5-.6 0-.9-.2-1.1-.5-.2-.3-.2-.8-.1-1.3l.5-4h-3.9l-.5 4v2.1c.1.6.3 1.2.7 1.7.4.5.9.8 1.5 1.1.6.3 1.2.4 2.3.4Zm-87.8 8c2.1 0 3 .8 2.7 2.3-.1.7-.4 1.3-1 1.7l-1.6.9-1.7.9-1.1.8-.2.3v.1c0 .7.2 1.2.5 1.5.3.3.8.5 1.4.5l1.1-.3c.4-.2.8-.4 1.1-.8l.4 1.2c-.8.6-1.7.8-2.8.8-1.3 0-2.3-.5-2.9-1.5-.5-.8-.7-1.9-.5-3.2v-.2c.1-.8.4-1.6.8-2.4a6 6 0 0 1 1.6-1.9c.7-.5 1.4-.7 2.2-.7Zm-22.6.1c.5 0 .9.2 1.2.6l-.8 1.6c-.4-.5-.9-.7-1.3-.7s-.8.2-1.2.6l-.6 1.2-.6 4.4c-.1.7 0 1.4.2 2h-1.7c-.3-.3-.3-1-.2-2l1-7.6h1.7l-.2 1.7c.3-.7.7-1.1 1.1-1.4.4-.3.9-.4 1.4-.4Zm-14.1-3.2c.4.2.7.9.9 1.9l2 9c.1.8.4 1.5.7 1.9h-2c-.3-.3-.5-.9-.7-1.8l-.7-3h-4l-1.4 3.1-.4 1.3v.4H86v-.3c.1-.4.2-.9.5-1.4l4.4-9.1.6-1.5v-.5h1.6Zm7.8 3.3-1 7.4c-.1.8 0 1.5.2 2.1h-1.7c-.3-.3-.3-1-.2-2.1l1-7.4h1.7Zm10.3-3.3c.3.3.4 1 .2 2l-1.2 8.7c-.1.8-.1 1.4.2 2.1h-1.7c-.3-.3-.3-1-.2-2.1l1.2-8.7c.1-.9.1-1.6-.2-2h1.7Zm3.9 3.3-1 7.4c-.1.8 0 1.5.2 2.1h-1.7c-.3-.3-.3-1-.2-2.1l1-7.4h1.7Zm6.8-.1c.8 0 1.4.3 1.8.8.3.5.5 1.1.4 1.7l-.7 5c-.1.8-.1 1.5.2 2.1h-1.9c-.3-.3-.3-1-.2-2l.7-4.7c.1-1-.3-1.6-1.4-1.6-.4 0-.8.1-1.1.4l-1 1.1-.7 4.7c-.1.8-.1 1.5.2 2.1h-1.7c-.3-.3-.3-1-.2-2.1l1.1-7.4h1.7l-.2 1.6c.1-.3.4-.6.8-.9a3 3 0 0 1 2.2-.8Zm7.8.8c-.7 0-1.3.5-1.9 1.6l-.7 2.7-.1.4v.3l1.8-1.3 1.5-1c.4-.4.6-.8.7-1.3.1-.4 0-.7-.3-1-.3-.3-.6-.4-1-.4Zm-37.6-1.9-2.3 4.7h3.3l-1-4.7Zm8.5-2.4c.3 0 .5.1.7.3.2.2.2.4.2.7 0 .3-.2.5-.4.7-.2.2-.5.3-.8.3a1 1 0 0 1-.7-.3c-.2-.2-.2-.4-.2-.7 0-.3.2-.5.4-.7.2-.2.5-.3.8-.3Zm14.2 0c.3 0 .5.1.7.3.2.2.2.4.2.7 0 .3-.2.5-.4.7-.2.2-.5.3-.8.3a1 1 0 0 1-.7-.3c-.2-.2-.2-.4-.2-.7 0-.3.2-.5.4-.7.2-.2.5-.3.8-.3Z"/></g></svg>