<?xml version="1.0" encoding="utf-8"?>
<!-- Generator: Adobe Illustrator 16.0.4, SVG Export Plug-In . SVG Version: 6.00 Build 0)  -->
<!DOCTYPE svg PUBLIC "-//W3C//DTD SVG 1.0//EN" "http://www.w3.org/TR/2001/REC-SVG-20010904/DTD/svg10.dtd">
<svg version="1.0" id="Layer_1" xmlns="http://www.w3.org/2000/svg" xmlns:xlink="http://www.w3.org/1999/xlink" x="0px" y="0px"
	 width="104px" height="86px" viewBox="0 0 104 86" enable-background="new 0 0 104 86" xml:space="preserve">
<linearGradient id="SVGID_1_" gradientUnits="userSpaceOnUse" x1="0" y1="43" x2="104" y2="43">
	<stop  offset="0" style="stop-color:#FFFFFF"/>
	<stop  offset="0.4085" style="stop-color:#D1D3D4"/>
	<stop  offset="0.7969" style="stop-color:#F1F2F2"/>
	<stop  offset="1" style="stop-color:#D1D3D4"/>
</linearGradient>
<path fill="url(#SVGID_1_)" d="M104,0c0,0-14.493,0-19.062,0s-6.678,3.08-6.678,3.08S22.242,71.508,13.104,78.936
	C5.146,85.404,0.951,85.963,0,86h74.111L104,0z"/>
<linearGradient id="SVGID_2_" gradientUnits="userSpaceOnUse" x1="9.8447" y1="55.9746" x2="71.3789" y2="55.9746">
	<stop  offset="0" style="stop-color:#ED1C24"/>
	<stop  offset="0.0425" style="stop-color:#DF1C24"/>
	<stop  offset="0.1187" style="stop-color:#CC1C24"/>
	<stop  offset="0.1972" style="stop-color:#C11C24"/>
	<stop  offset="0.2809" style="stop-color:#BD1C24"/>
	<stop  offset="0.6685" style="stop-color:#ED1C24"/>
	<stop  offset="0.8876" style="stop-color:#BC1C24"/>
	<stop  offset="1" style="stop-color:#AB3E3A"/>
</linearGradient>
<path fill="url(#SVGID_2_)" d="M39.983,71.032c0.163-0.304,17.056-23.383,18.168-25.487c1.114-2.104,13.228-19.596,13.228-19.596
	c-1.859,1.338-3.739,2.767-5.634,4.269C44.382,47.158,21.371,73.427,9.845,86h11.62h6.697c4.227-5.334,9.247-11.669,11.091-14.022
	C39.701,71.406,39.967,71.062,39.983,71.032z"/>
<g>
	<linearGradient id="SVGID_3_" gradientUnits="userSpaceOnUse" x1="97.8789" y1="-1.8887" x2="61.1219" y2="61.7762">
		<stop  offset="0" style="stop-color:#006838"/>
		<stop  offset="0.0093" style="stop-color:#006838"/>
		<stop  offset="0.2809" style="stop-color:#006838"/>
		<stop  offset="0.3815" style="stop-color:#006838"/>
		<stop  offset="0.6685" style="stop-color:#006838"/>
		<stop  offset="0.8876" style="stop-color:#009444"/>
		<stop  offset="1" style="stop-color:#006838"/>
	</linearGradient>
	<path fill="url(#SVGID_3_)" d="M94.345,27.781l9.179-26.411c-2.905,2.886-5.801,5.509-8.007,6.943L71.314,26.043
		c-0.905,1.307-12.094,17.482-13.163,19.502c-0.462,0.874-3.647,5.368-7.225,10.345c4.422-4.188,13.115-11.425,23.261-14.949
		C81.375,38.444,88.744,32.815,94.345,27.781z"/>
</g>
<path d="M88.249,45.32c-4.363,3.412-10.785,7.382-19.857,10.756c-7.834,2.913-19.69,9.874-29.139,15.901
	C37.409,74.331,32.389,80.666,28.162,86h13.289c1.909-0.81,3.357-1.426,4.092-1.745c3.839-1.666,22.949-6.549,34.477-15.256
	L88.249,45.32z"/>
</svg>
