<svg xmlns="http://www.w3.org/2000/svg" width="128" height="128"><path fill="#fff" d="M63.73 7.1C32.1 7.1 6.36 32.8 6.36 64.46c0 31.62 25.74 57.36 57.37 57.36S121.1 96.1 121.1 64.46c0-31.64-25.74-57.37-57.37-57.37zm0 106.88c-27.34-.03-49.5-22.18-49.52-49.52 0-.33.03-.64.03-.96l7.15 5.5h3.7l4.17 4.18v8.7l3.58 3.57h4.24v18.04l5.46 5.47h1.9v-3.44l9.35-9.35v-3.56l4.88-4.93v-9h-5.4l-10.6-10.6H27.7V60.3h11.64v-3.38h7.02l4.74-4.72v-7.6l-6.37-6.37h-7.52v3.88h-8.08V37l4.7-4.7v-3.34h-4.62a49.36 49.36 0 0 1 34.5-14.02 49.4 49.4 0 0 1 32.6 12.27H85.26L77.3 35.2l5.46 5.45-3.5 3.5-1.6-1.6 1.4-1.4-.65-.66-2.33-2.34-.63-.64-4.9 4.6 5.53 5.53-7.68-.05v9.56h8.75l.07-5.5 1.43-1.43 5.15 5.17v3.4h7.03l.27-.27 11.86 11.83 6.83-6.8h3.44v.9c0 27.36-22.17 49.52-49.5 49.55zM65.32 19.96l-20.18.02V33.6l8.33 8.33h3.87V36.1l7.98-7.97zm31.56 53.8l-13.4-13.4v-.04H68.3l-4.55 4.54v9.67l6.46 6.45h11.7v11.3l8.8 8.84h2.2V90.25l4.3-4.3V78h2.44l3.08-3.1-1.18-1.14zM95.8 99.52l3.72-3.1v-5.5h-3.7z"/></svg>