<svg xmlns="http://www.w3.org/2000/svg" viewBox="0 0 312 92"><g fill="#fff"><path d="M39.8 6.9H49L50 0H33.3L30 23c2.6-1.6 5.3-3.1 8.1-4.5l1.7-11.6zM310.4 0c-18 17.9-38.4 32.9-60.6 45-1.2.6-2.4 1.3-3.6 1.9-.3-1.2-.5-1.6-1-4.6-.8-3.9-1.5-7.7-2.3-11.6 2-.5 3.5-1.5 4.3-3 .9-1.5 1.5-3.3 1.8-5.6l1.8-12.9c.2-1.4.2-2.6.1-3.7-.1-1.2-.4-2.1-1-3-.5-.8-1.3-1.4-2.4-1.9-1.1-.4-2.6-.6-4.4-.6h-10.8l-7.5 53.8h7.1l3.2-22.8h1.1c.5 3.9 1.1 7.7 1.7 11.5.4 2.8.9 5.7 1.2 8-29.4 14.5-61 24.4-93.3 30.1-18 3.2-36.3 5.3-54.6 6-9.2.3-18.4.2-27.5-.3-9.1-.5-18.1-1.6-27-3.5-4.4-.9-8.7-2.1-12.8-3.7-4.1-1.6-8.1-3.5-11.3-6.1-3.2-2.6-5.3-7-5.6-10.5-.8-10.4 8.7-21.3 21.7-29.8l-3 21.1h7.1l3.3-23.9.3-1.7c3-1.6 6.1-3.1 9.3-4.4l1.3-8.1c-7.8 3.7-15.4 7.9-22.6 12.9-3.9 2.7-7.6 5.7-11.2 9-3.5 3.4-6.8 7.1-9.4 11.5C1.3 53.5-.6 58.9.2 64.5c.3 2.8 1.4 5.6 2.9 7.9 1.6 2.3 3.5 4.2 5.5 5.7 4.1 3.1 8.6 5.2 13.1 6.8 4.6 1.7 9.2 2.8 13.8 3.8 9.3 1.8 18.6 2.7 28 3.1 9.3.4 18.6.2 27.9-.3 18.5-1 37-3.4 55.2-7C183 77.4 218.4 65 250.7 46.7 273 34.1 294.1 18.4 312 0h-1.6zM236 24.5l2.5-17.7h2.9c1.8 0 2.6.9 2.3 2.7L242 21.8c-.1.9-.4 1.6-.8 2-.5.5-1.2.7-2.1.7H236zM79.3 54l2.9-20.8L94 0h-7.7L80 22.5 80.2 0h-7.7l2.4 33.2L72 54zM121.4 53.3c1.2-.4 2.2-1 3-1.8.8-.8 1.3-1.8 1.7-2.9.5-1.1.8-2.4 1-3.8l1.6-11.5c.2-1.6.1-3-.3-4.1-.4-1.1-1.3-2-2.5-2.6 1.3-.6 2.3-1.4 3-2.5.6-1 1-2.4 1.3-4l1.6-11.6c.2-1.4.3-2.6.1-3.7-.1-1-.4-1.9-1-2.6-.6-.8-1.4-1.3-2.6-1.7-1.1-.3-2.6-.5-4.5-.5h-10.3L106 54h10.8c1.9 0 3.4-.2 4.6-.7zm-1.8-46.4h3c1.1 0 1.7.2 1.9.8.2.6.3 1.5.1 2.6l-1.3 9.2c-.1 1.2-.4 2.1-.8 2.8-.4.7-1.1 1.1-2.2 1.1h-3l2.3-16.5zM116.4 30h3c1 0 1.7.3 2 .8.3.5.3 1.2.2 2.1L120 44.7c-.1.8-.4 1.5-.8 1.9-.4.4-1.1.6-2 .6H114l2.4-17.2zM151.4 47.2h-9.3l2.4-17.2h8l.9-6.6h-8l2.3-16.5h9.3l1-6.9h-16.4L134 54h16.4zM167.2 54l6.6-47.1h6.2l1-6.9h-19.4l-1.1 6.9h6.1L160 54zM190.2 54l6.6-47.1h6.2l1-6.9h-19.4l-1.1 6.9h6.1L183 54zM218.4 54l1-6.8h-9.3l2.4-17.2h8l1-6.6h-8.1l2.3-16.5h9.3l1-6.9h-16.4L202 54zM63.1 54l.9-6.8h-7.2L63.2 0h-6.9L49 54z"/></g></svg>