<svg xmlns="http://www.w3.org/2000/svg" viewBox="0 0 240 80"><g fill="#FFF" fill-rule="evenodd"><path d="M41 1.3a38.7 38.7 0 11-.1 77.5 38.7 38.7 0 010-77.5zm0 1.4a37.3 37.3 0 100 74.7 37.3 37.3 0 000-74.7zM84.9 58.9l4-29.4h8.8l-.5 3.8h-4.8L91 42.2h4.2l-.5 3.7h-4.2l-1.8 13zM100.3 29.5h3.9L100 58.9h-4zM110.3 58.9h-4.6c0-9.9.2-19.7.4-29.4h4l-.6 12.1-.4 5.6-.2 5.6a197.6 197.6 0 012.5-11.2l2.8-12.1h4l-7.9 29.4zM120.4 55.2h5l-.4 3.7h-9l4-29.4h9l-.5 3.8h-5l-1.3 9h4.4l-.5 3.6h-4.4zM140.6 50.8c.2-1.4.1-2.4 0-3.2-.3-.9-.7-1.5-1-2L138 44l-1.4-1.5c-.5-.6-.8-1.3-1-2.2-.2-.8-.2-2 0-3.5l.4-2.6c0-.7.3-1.4.5-2a5 5 0 011.1-1.7 5 5 0 011.8-1.1c.8-.3 1.7-.4 2.7-.4 1 0 1.9.1 2.5.4.7.2 1.2.6 1.5 1 .4.5.6 1 .7 1.7a7 7 0 010 2.1l-.5 3.6h-4l.6-3.6c0-.5 0-.9-.2-1.2-.2-.3-.5-.5-1.1-.5-.6 0-1 .2-1.3.5-.2.3-.4.7-.4 1.2l-.4 2.5c-.1 1.1-.1 2 .2 2.7.2.7.5 1.3 1 1.7l1.5 1.4a6.2 6.2 0 012.3 4c.2 1 .2 2.4 0 4.1l-.5 3.4a6.7 6.7 0 01-1.7 3.7c-1 1-2.4 1.5-4.4 1.5-1 0-2-.1-2.6-.4-.6-.2-1.1-.6-1.5-1-.3-.5-.6-1-.6-1.7v-2.1l.5-4h4l-.6 4c0 .5 0 .9.2 1.2.1.4.5.5 1 .5.7 0 1-.1 1.3-.5.3-.3.4-.7.5-1.2l.5-3.3zM151.8 58.9h-4l3.7-25.6h-3.3l.5-3.8h10.5l-.5 3.8h-3.3zM167.2 29.5l-.5 29.4h-3.9l.3-6h-3.3l-1.4 6h-4l7.8-29.4h5zm-3.1 4.8a1243.5 1243.5 0 01-3.4 15h2.5a247 247 0 01.9-15zM178.6 29.5c1 0 1.8.1 2.5.3.6.3 1 .6 1.3 1 .3.5.5 1 .6 1.7l-.1 2-1 7a9 9 0 01-1 3.1c-.4.8-1.2 1.4-2.3 1.7l1.2 6.3 1.2 6.3h-4.2l-1-6.2-1-6.3h-.5L172.6 59h-4l4.2-29.4h5.8zm-.9 3.7h-1.6l-1.3 9.7h1.6c.6 0 1-.2 1.2-.4.2-.3.4-.6.4-1l1-6.8c.1-1-.3-1.5-1.3-1.5zM97.4 11.9c3.2 0 4.8 2.8 4.1 5.9-.7 3.2-3 5.8-6.6 5.8-3.2 0-4.7-2.6-4-5.8.7-3 3.3-6 6.5-6zm-.1 1.2c-2.3 0-3.6 2.8-4 4.7-.4 2-.3 4.6 2 4.6 2.2 0 3.4-2.6 3.8-4.5.4-2 .4-4.8-1.8-4.8zM103.2 23.4c-.3-.3-.3-.9-.1-1.8l1.1-5.6h-.2c-.7 0-1-.5-1-1h1.5l.2-1c.3-1.4 1.3-2.1 3.1-2.1a4 4 0 012 .7l-.8 1.2c-.4-.8-1-1-1.3-1-.4 0-.9.2-1 1.1l-.3 1.1h.8c.7 0 1.2.3 1.2 1.3a4 4 0 00-1.5-.3h-.7l-1.2 5.6a4 4 0 000 1.8h-1.8zM109.6 23.4c-.3-.3-.3-.9-.1-1.8l1.1-5.6h-.2c-.7 0-1-.5-1-1h1.5l.2-1c.3-1.4 1.3-2.1 3.1-2.1a4 4 0 012 .7l-.8 1.2c-.4-.8-1-1-1.3-1-.4 0-.9.2-1 1.1l-.3 1.1h.8c.7 0 1.2.3 1.2 1.3a4 4 0 00-1.5-.3h-.7l-1.2 5.6a4 4 0 000 1.8h-1.8zM117.2 21.6c-.1 1 0 1.5.1 1.8h-1.9c-.2-.3-.3-1-.1-1.8l1.4-6.6h2l-1.5 6.6zM118.3 11.9c.6 0 1 .5.8 1 0 .7-.7 1.2-1.3 1.2-.6 0-1-.5-.8-1.1.1-.6.7-1.1 1.3-1.1zM125.3 22.8a4 4 0 01-2.4.8c-2.3 0-3.9-1.5-3.3-4.4.5-2.2 2.4-4.3 5-4.3.7 0 1.5 0 2.3.4l-.8 1.5c-.3-.5-.7-1-1.7-1-1.4 0-2.2 2-2.5 3.4-.4 1.9-.2 3.5 1.3 3.5.6 0 1.4-.7 1.8-1.2l.3 1.3zM128.5 21.6c-.2 1 0 1.5 0 1.8h-1.8c-.3-.3-.3-1-.1-1.8L128 15h2l-1.5 6.6zM129.6 11.9c.6 0 1 .5.8 1-.1.7-.7 1.2-1.3 1.2-.6 0-1-.5-.8-1.1 0-.6.7-1.1 1.3-1.1zM135.2 14.9c1.7 0 2.6.7 2.2 2.5l-.9 4.3v1.7h-1.8c-.1-.2-.2-.3-.2-.7-.4.5-1.5 1-2.3 1-1.4 0-2.2-1-1.9-2.3.3-1.5 1.8-2.1 3.2-2.8 1-.4 2-.9 2.1-1.8.2-.5-.2-1-.7-1-.8 0-1.5.6-2.3 1.4l-.3-1.4c1.2-.7 2.1-1 2.9-1zm0 3.8a9 9 0 01-1 .6c-1 .4-1.6 1-1.9 2-.1.8.2 1.4.7 1.4.7 0 1.2-.4 1.6-1l.6-3zM140.2 21.6c-.2.9-.1 1.4 0 1.8h-1.9c-.2-.3-.3-1 0-1.8l1.5-7.7c.2-1 .1-1.6 0-1.9h1.9c.2.4.3 1 .1 1.9l-1.6 7.7z"/><g><path d="M91.8 75.4c-.2 1-.1 1.4 0 1.7v.2H88c-3.1 0-5-2-4.3-5.7.7-3.1 3.3-5.8 6.8-5.8 1 0 2.2.2 3 .9l-.8 1.5c-.8-1-1.4-1.3-2.4-1.3-2.3 0-3.7 2.4-4.2 4.6-.5 2.3 0 4.7 2.5 4.7h1v-.4l.2-.8.5-2.2c.3-1.3 0-1.9 0-1.9h2.4l-1 4.5zM95.8 75.4c-.2 1-.1 1.5 0 2h-1.9c-.2-.5-.3-1-.1-2l1.6-7.7c.2-.9 0-1.5 0-1.8h1.9c.2.4.3 1 0 1.8l-1.5 7.7zM103.1 68.7c2.4 0 3.6 1.9 3 4.4-.5 2.5-2.4 4.4-4.8 4.4-2.6 0-3.5-2-3-4.4.5-2.6 2.4-4.4 4.8-4.4zm-.1 1c-1.3 0-2.1 1.6-2.5 3.3-.3 1.3-.4 3.6 1 3.6 1.3 0 2.1-2.2 2.4-3.5v-.4c.4-1.6.4-3-1-3zM110.2 65.9c.2.4.3 1 0 2l-.3 1.5c.5-.4 1-.7 1.8-.7 2.6 0 3.3 2.3 2.9 4.3-.5 2.2-2.4 4.5-5 4.5-1.5 0-2.5-.7-3-1.7l1.7-8c.2-1 .2-1.5 0-2h1.9zm1 3.7a2 2 0 00-1.5 1l-1.1 5.1c.1.6.6.9 1 .9 1.4 0 2.3-1.4 2.7-3.5.6-2.6 0-3.5-1-3.5zM120.2 68.7c1.7 0 2.6.8 2.2 2.6l-.9 4.3v1.7h-1.8l-.3-.7c-.4.5-1.4.9-2.2.9-1.5 0-2.2-.8-2-2.2.4-1.5 2-2.2 3.3-2.8 1-.5 2-1 2.1-1.8.2-.6-.2-1-.7-1-.8 0-1.5.6-2.3 1.4l-.3-1.5c1.2-.6 2-.9 2.9-.9zm0 3.8a9 9 0 01-1.1.7c-.9.4-1.6.9-1.8 2-.2.8.2 1.4.7 1.4.7 0 1.2-.4 1.6-1l.6-3zM125.2 75.4c-.2 1-.1 1.5 0 2h-2c-.1-.5-.2-1 0-2l1.6-7.7c.2-.9 0-1.5 0-1.8h1.9c.2.4.3 1 0 1.8l-1.5 7.7zM137.6 65.9c.3.2.6.7.8 1.7l1.2 8c0 .6.3 1.3.6 1.7H138c-.3-.3-.5-.8-.6-1.6l-.4-2.6h-3.2l-1.4 2.7-.4 1.1v.4H130V77l.6-1.3 4.5-8c.4-.5.5-1 .6-1.3V66h1.9zm-1.2 2.4l-2 3.6h2.4l-.4-3.6zM143 75.4c-.2 1 0 1.5 0 2h-1.8c-.3-.5-.3-1-.1-2l1.3-6.5h2l-1.4 6.5zM144 65.8c.6 0 1 .4.9 1-.1.6-.7 1.1-1.3 1.1-.6 0-1-.5-.9-1 .1-.7.8-1.1 1.3-1.1zM148.4 68.9l-.2.9c.5-.5 1.2-1 2-1 .6 0 1 .2 1.2.5l-.9 1.6c-.3-.5-.7-.9-1.2-.9-.6 0-1.3.6-1.4 1.3l-1 4.2c-.1.9 0 1.4.1 1.8h-1.9c-.2-.4-.2-1 0-1.8l1.3-6.6h2zM153 75.4c-.3 1-.2 1.5 0 2h-2c-.2-.5-.2-1 0-2l1.6-7.7c.2-.9 0-1.5 0-1.8h1.9c.2.4.2 1 0 1.8l-1.6 7.7zM156.9 75.4c-.2 1-.1 1.5 0 2H155c-.2-.5-.3-1-.1-2l1.4-6.5h2l-1.4 6.5zM157.9 65.8c.6 0 1 .4.9 1-.2.6-.8 1.1-1.4 1.1-.5 0-1-.5-.8-1 .1-.7.7-1.1 1.3-1.1zM162.5 68.9l-.1.9c.5-.5 1.3-1 2.3-1 1.4 0 2.2.9 2 2.2l-1 4.4c-.2 1-.1 1.4 0 1.9h-1.9c-.2-.4-.3-1 0-1.8l.8-4.2c.2-.8-.1-1.3-.9-1.3-.6 0-1.2.4-1.6.8l-1 4.6c-.2 1 0 1.5.1 2h-1.9c-.2-.5-.3-1-.1-2l1.4-6.5h2zM172.6 68.7c1.8 0 2.6.9 2.3 2.1-.3 1.3-1.3 1.8-2.6 2.4-.4.1-2.4 1-2.5 1.5-.2.7.2 1.9 1.1 1.9.8 0 1.5-.5 2.2-1.3l.3 1.4c-.6.4-1.5.8-2.7.8-2.3 0-3.4-1.9-3-4.2.5-2.5 2.5-4.6 5-4.6zm-.3 1c-1 0-2 2-2.4 3.6v.3l1.4-1c.9-.6 1.6-1 1.8-1.9.1-.7-.2-1-.8-1z"/></g><g><path d="M33.5 62c1.2 0 2.4.5 2.4 1.5 0 .8-.8 1.3-1.9 1.6-.9.3-1.5.7-1.7 1H36v.9h-5v-.5c.1-.9 1-1.7 2.4-2.1.8-.3 1.4-.5 1.4-.9s-.7-.6-1.3-.6c-.7 0-1.3.3-1.8.8l-.6-.5a3 3 0 012.4-1.2M39.3 62c1.8 0 3 1 3 2.6S41 67 39.2 67s-2.9-1-2.9-2.5c0-1.6 1.1-2.6 3-2.6zm0 1c-1 0-1.8.5-1.8 1.6 0 1 .7 1.6 1.8 1.6s1.8-.6 1.8-1.6-.7-1.6-1.8-1.6zM45.2 62a3 3 0 00-2.5 1.2l.6.5c.5-.5 1.1-.8 1.8-.8s1.3.2 1.3.6c0 .4-.6.6-1.4.9-1.4.4-2.3 1.2-2.4 2.1v.5h5V66h-3.7c.2-.3.8-.7 1.7-1 1.1-.3 1.9-.8 1.9-1.6 0-1-1.2-1.5-2.3-1.5M49.4 67h1.1v-4.8h-.8c-.4.4-1.1.7-1.7.8v1c.5-.1 1-.3 1.4-.6V67z"/></g><g><path d="M34.2 72.5l.4 1.4.9-1.2h.4l-1.2 1.6-.4-.1-.5-1.8zM36.5 72.8h.4l.7 1.9H37v-.5l-1.1-.1-.2.3h-.4l1-1.6zm.1.4l-.4.6.7.1-.3-.7zM38.2 74.4V73H38l-.1 1.7h1.6v-.2zM40 74.9V73h-.3l-.1 1.8zM41.4 73.1c.6 0 1 .3 1 .9 0 .5-.4.8-1 .8h-1v-1.7zm0 .3h-.6v1.1h.5c.4 0 .7-.2.7-.5 0-.4-.3-.6-.7-.6zM43.7 73l1 1.7h-.4l-.3-.4-1 .1-.1.4h-.4l.7-1.8h.5zm-.2.4l-.3.7h.7l-.4-.7zM46 72.8l-1.7.2v.4l.7-.1.2 1.3h.4l-.2-1.4.8-.1zM46.9 74l-.1-.3 1-.2v-.3l-1 .2-.1-.4 1.3-.2v-.4l-1.7.4.3 1.7 1.7-.4-.1-.3zM49.1 72.1c.6-.1 1.1 0 1.2.6.2.5-.1 1-.8 1l-.9.3-.4-1.7zm.9.7c-.1-.4-.4-.5-.8-.4l-.5.2.3 1 .4-.1c.4-.1.7-.4.6-.7z"/></g><g><path d="M18.2 65.7l.2.4c-.3 0-.7 0-1-.3-.5-.4-.6-1-.2-1.4.4-.4 1-.4 1.4 0 .3.3.4.7.4 1l-.4-.1c0-.2 0-.4-.2-.6-.3-.3-.7-.3-.9 0-.3.3-.2.6.1.9.2.1.4.2.6.1M18.9 66.6l.2-.3.9.7.2-.3-1-.7.3-.3 1 .9.3-.3-1.4-1.1-1 1.4 1.3 1.1.2-.3zM21 66.5l1 .7c.3.2.4.5.2.8-.2.3-.4.3-.7.2l.1.8-.4-.3V68l-.5-.4-.4.5-.3-.2 1-1.4zm.1.5l-.3.4.7.4c.1.1.3.2.4 0 .1-.2 0-.3-.2-.4l-.6-.4zM24.3 68.6l-1.6-1-.2.3.6.4-.7 1.2.3.2.8-1.2.6.4zM23.9 70.4l.9-1.5-.4-.2-.8 1.5zM26.5 70.1v-.3l-1.4-.7-.8 1.5.4.2.3-.6 1 .5v-.3l-1-.5.3-.3zM26.4 71.6l.8-1.5-.4-.2-.7 1.6zM27.3 71.7l.2-.4 1 .5v-.3l-1-.5.2-.3 1.3.5v-.3l-1.5-.7-.7 1.6 1.7.7v-.3zM29.3 71l.9.3c.6.2.8.6.7 1.1-.2.6-.7.7-1.3.5l-.9-.3.6-1.6zm.3.4l-.4 1 .5.2c.4.1.7 0 .8-.3.1-.3 0-.6-.5-.7l-.4-.2z"/></g><g><path d="M63.6 64.3c.5-.4 1-.4 1.4 0 .3.4.2.9-.2 1.3l-.7.6L63 65zm1 .2c-.2-.2-.5-.2-.8.1l-.3.3.7.8.3-.3c.3-.3.4-.6.2-.9zM53.1 70.9l1.1.9.1-1.4.4-.2-.2 1.9-.4.2-1.4-1.3zM55.7 71.2v-.3l1-.5-.2-.3-1 .5-.2-.3 1.2-.6v-.3l-1.7.7.7 1.6 1.6-.8v-.3zM57.7 68.7c.3-.2.7-.2.9.1.1.3 0 .5-.2.7l.8.3-.4.2-.7-.2-.6.3.3.5-.3.2-.8-1.5zm.5.3c0-.2-.2-.1-.4 0l-.6.3.2.5.7-.4c.1-.1.2-.2.1-.4zM59.7 69.4L59 68l-.4.2 1 1.4zM60.8 67l-.2-.2-1.4 1 1 1.4.2-.2-.3-.6 1-.6-.3-.3-.9.7-.2-.4zM62.1 67.8l-1-1.3-.4.2 1.1 1.4zM62.5 67l-.2-.2 1-.7-.3-.3-.9.7-.2-.3 1-.8-.2-.3-1.3 1 1 1.5 1.4-1.1-.2-.3z"/></g><g><path d="M27 58.6c-.3.3-.7.5-1.3.5-1 0-1.5-.5-1.5-1.2 0-.8.6-1.2 1.5-1.2.5 0 1 .2 1.2.4l-.4.3a1 1 0 00-.8-.3c-.6 0-1 .3-1 .8s.4.7 1 .7c.4 0 .6 0 .8-.2v-.2h-.9v-.5H27v.9zM27.8 58.6v-1.8h-.5V59h2.1v-.4zM31 56.7c.9 0 1.4.4 1.4 1.2 0 .7-.5 1.2-1.4 1.2-.9 0-1.4-.4-1.4-1.2 0-.8.5-1.2 1.4-1.2zm0 .4c-.5 0-.9.3-.9.8s.3.8 1 .8c.5 0 .8-.3.8-.8s-.3-.8-.9-.8zM34.4 56.8c.5 0 .8.2.8.5s-.1.5-.5.5c.4 0 .7.2.7.6 0 .4-.4.6-1 .6h-1.6v-2.2zm0 1.3h-1v.5h1c.3 0 .4 0 .4-.3 0-.2-.1-.2-.4-.2zm-.1-1h-1v.6h1c.3 0 .4 0 .4-.3 0-.2-.1-.2-.4-.2zM37.2 56.8l1.1 2.2h-.5l-.3-.5h-1.3l-.2.5h-.6l1.2-2.2h.6zm-.3.4l-.5 1h1l-.5-1zM39.1 58.6v-1.8h-.5V59h2.1v-.4zM43.4 56.8l1.2 2.2H44l-.2-.5h-1.4l-.2.5h-.5l1.1-2.2h.6zm-.3.4l-.4 1h.9l-.5-1zM44.8 59h.5v-2.2h-.5zM47.4 56.8c.6 0 1 .2 1 .7 0 .4-.3.6-.7.7l.7.8h-.6l-.6-.8h-.8v.8h-.5v-2.2zm0 .4h-1v.6h1c.3 0 .4 0 .4-.3s-.2-.3-.4-.3zM49.3 58.6v-1.8h-.6V59h2.1v-.4zM51.1 59h.5v-2.2h-.5zM54.2 56.8v1.5l-1.5-1.5h-.6V59h.5v-1.6l1.6 1.6h.5v-2.2zM55.7 58.6V58h1.5v-.4h-1.5v-.5h1.8v-.4h-2.3V59h2.3v-.4h-1.8z"/></g><g fill-rule="nonzero"><path d="M17.7 44.7L19 48l3.6.2-2.9 2.3 1 3.5-3-2-3 2 1-3.5-3-2.3 3.7-.2zM29.2 44.7l1.3 3.4 3.7.2-2.9 2.3 1 3.5-3-2-3.2 2 1-3.5-2.9-2.3L28 48zM40.7 44.7L42 48l3.7.2-2.9 2.3 1 3.5-3-2-3.2 2 1-3.5-2.9-2.3 3.7-.2zM52.2 44.7l1.3 3.4 3.7.2-2.9 2.3 1 3.5-3-2-3.2 2 1-3.5-2.9-2.3L51 48zM63.7 44.7L65 48l3.7.2-2.9 2.3 1 3.5-3-2-3.2 2 1-3.5-2.9-2.3 3.7-.2z"/></g><g><path d="M14.6 38.2v1.4h3.9v1h-4V43h-1.2V37h5.9v1h-4.6zM20.3 42.9h1.3V37h-1.4zM22.6 37l2.8 5.9H27l2.9-5.8h-1.5l-2.1 4.5L24 37zM32 41.8v-1.3h3.8v-1.1H32v-1.2h4.6V37h-5.9v5.8h6v-1.1H32zM46.4 41.1c0-1.3-1.3-1.7-3.2-1.8-1.2-.1-2-.1-2-.6 0-.6 1-.7 1.8-.7 1 0 1.7.2 2.4.7l.7-1c-.8-.5-1.9-.8-3.1-.8-1.8 0-3.1.6-3.1 1.9 0 1.2 1.5 1.6 3.2 1.7 1.3.1 2 .3 2 .7 0 .5-.7.7-1.9.7a4 4 0 01-2.8-1l-.8 1c1 .8 2.1 1.2 3.6 1.2 2 0 3.2-.8 3.2-2M53.5 37H47v1.2h2.5v4.7H51v-4.7h2.6zM57.4 37l3.1 5.9h-1.4l-.6-1.3h-3.6l-.6 1.3H53l3-5.8h1.5zm-.7 1.2l-1.2 2.4h2.4l-1.2-2.4zM65.5 37c1.4 0 2.5.7 2.5 2 0 1-.7 1.6-1.6 1.8l1.8 2h-1.6l-1.7-2h-2.1v2h-1.3v-5.7zm0 1.2h-2.7v1.6h2.6c.7 0 1.2-.2 1.2-.8 0-.7-.5-.8-1.2-.8z"/></g><g><path d="M8.8 30.7c1 0 1.6.5 1.6 1.3 0 .9-.6 1.4-1.6 1.4s-1.6-.5-1.6-1.4c0-.8.6-1.3 1.6-1.3zm0 .5c-.6 0-1 .3-1 .8 0 .6.4.9 1 .9s1-.3 1-.9c0-.5-.4-.8-1-.8zM13.6 31.3v-.5H11v2.5h.6v-1h1.7V32h-1.7v-.6zM16.6 31.3v-.5h-2.5v2.5h.6v-1h1.6V32h-1.6v-.6zM17.1 33.3h.6v-2.5h-.6zM20.8 32.5c-.2.3-.5.4-.9.4-.6 0-1-.3-1-.9 0-.5.4-.8 1-.8.4 0 .7.1.9.4l.5-.3c-.2-.3-.7-.6-1.4-.6-1 0-1.6.5-1.6 1.3 0 .9.7 1.4 1.6 1.4.7 0 1.2-.3 1.4-.7l-.5-.2M21.8 33.3h.6v-2.5h-.6zM24.8 30.8l1.4 2.5h-.7l-.2-.5h-1.6l-.2.5h-.6l1.3-2.5h.6zm-.3.5l-.5 1h1l-.5-1zM27.2 32.8v-2h-.6v2.5H29v-.5zM32 30.8l1.4 2.5h-.7l-.2-.5h-1.6l-.2.5H30l1.3-2.5h.6zm-.3.5l-.5 1h1l-.5-1zM33.8 33.3h.6v-2.5h-.6zM36.9 30.8c.6 0 1 .3 1 .8 0 .4-.2.7-.6.8l.7 1h-.6l-.8-1h-.9v1h-.6v-2.6H37zm0 .5h-1.2v.7H37c.3 0 .5-.1.5-.4 0-.3-.2-.3-.5-.3zM39.2 32.8v-2h-.6v2.5H41v-.5zM41.4 33.3h.6v-2.5h-.6zM45.1 30.8v1.7l-1.7-1.7h-.7v2.5h.6v-1.8l1.8 1.8h.5v-2.5zM47 32.8v-.5h1.7v-.5H47v-.5h2v-.5h-2.6v2.5H49v-.5h-2zM52.3 30.8c.6 0 1 .3 1 .8 0 .4-.2.7-.7.8l.8 1h-.7l-.7-1h-1v1h-.5v-2.6h1.8zm0 .5H51v.7h1.1c.3 0 .6-.1.6-.4 0-.3-.3-.3-.6-.3zM55.7 30.8l1.4 2.5h-.7l-.2-.5h-1.6l-.2.5h-.6l1.3-2.5h.6zm-.3.5l-.5 1h1l-.5-1zM59.7 30.8H57v.5H58v2h.6v-2h1.1zM60.1 33.3h.6v-2.5h-.6zM63.8 30.8v1.7l-1.7-1.7h-.6v2.5h.5v-1.8l2 1.8h.4v-2.5zM68 31.9h-1.4v.5h1v.2c-.3.2-.6.3-1 .3-.6 0-1-.3-1-.8 0-.6.4-.9 1-.9.4 0 .7.1.9.3l.4-.3c-.2-.3-.7-.5-1.3-.5-1 0-1.6.5-1.6 1.4 0 .8.6 1.3 1.6 1.3.7 0 1.2-.2 1.5-.6v-1zM71.4 32.5c0-.5-.6-.7-1.4-.8-.5 0-.9 0-.9-.2 0-.3.5-.3.8-.3.4 0 .8 0 1 .3l.4-.4c-.4-.3-.8-.4-1.4-.4-.8 0-1.3.3-1.3.8 0 .6.6.7 1.4.8.5 0 .8 0 .8.3 0 .2-.3.3-.8.3s-.9-.1-1.2-.4l-.3.4c.3.3.9.5 1.5.5 1 0 1.4-.4 1.4-.9M72.7 30.8h-1v.2h.4v.7h.2V31h.4zM73.8 30.8l-.4.5-.4-.5h-.2v.9h.2V31l.4.5.4-.5v.6h.2v-1z"/></g><g><path d="M27 15.4l3 5.7h-1.5l-.6-1.2h-3.4L24 21h-1.3l3-5.7h1.3zm-.8 1.1l-1.1 2.3h2.3l-1.2-2.3zM34.5 15.4c1.5 0 2.4.7 2.4 2 0 1.2-1 1.9-2.4 1.9h-2.6V21h-1.2v-5.7h3.8zm0 1.1h-2.6v1.7h2.5c.7 0 1.2-.2 1.2-.8 0-.7-.5-.9-1.2-.9zM39 20v-1.2h3.8v-1.1H39v-1.1h4.4v-1.1h-5.7V21h5.8V20zM50.8 15.5h-1.5l-1.7 1.9-1.8-2h-1.6l2.6 2.9-2.6 2.8h1.5l1.8-2 1.8 2h1.6l-2.6-3zM55 16.8l-.8-1.2-.4-.1.2.1h.1l.1.2.7 1h.4v.4h-.1l.4.8H57.1l.8.2.2.1-.1.1-.8.2h-1.5l-.2.2-.2.5-.1.1h.2v.3H55a34 34 0 01-.8 1.2l-.4.2V21v-.3c.2-.1.3-.3.4-.6v-.2l.2-.3.1-.3.1-.2v-.4H54c-.6 0-1 0-1.4-.2a17.4 17.4 0 00-.4.6l-.1.2H52h-.1V19v-.2l.2-.5h-.2v-.1l.2-.1-.1-.5-.2-.4.3.8v.1H52v.1h.1v.2l-.2.8h.1l.2-.2.3-.5h2.1v.7l-.1.3-.2.3v.2h-.1l-.4 1 .2-.4.2-.5.1-.2.1-.3.2-.3v-.7H54l-1.4-.2-.3.4a1.5 1.5 0 01-.1.2H52v.1H52V19l.2-.5-.2-.1h.1V18v-.5l-.2-.2h.1l.1.1.4.5h2l.1-.1v-.5-.2l-.2-.3v-.3h-.1v-.2h-.1a28 28 0 01-.4-.9H54.2l.1.1.1.1.2.3.5.8h.4v.4-.4H55zm.2.4l.1.1.4.5v.1h1.5l.8.2.2.1v.1l-.2.2h-.3.2l.3-.2-.2-.2-.8-.1a87.4 87.4 0 00-1.5-.1l-.5-.7z"/><path fill-rule="nonzero" d="M58.3 26.4l-4.4-1a229.7 229.7 0 00-4.4-1 58.2 58.2 0 00-10-1h-8l-9-.1v-.4h18.1a58.2 58.2 0 0111.2 1.3l2.2.5 4.3 1v.7zM58.3 10l-4.4 1.1a229.7 229.7 0 01-4.4 1 58.2 58.2 0 01-10 1h-8l-9 .1v.4h18.1a58.2 58.2 0 0011.2-1.3l2.2-.5 4.3-1v-.7z"/></g><path fill-rule="nonzero" d="M32.5 72.7c0 .2-.2.4-.4.4a.4.4 0 01-.4-.4c0-.2.1-.4.4-.4.2 0 .4.2.4.4M52.5 72c0 .3-.2.5-.4.5a.4.4 0 01-.4-.4c0-.3.1-.4.4-.5.2 0 .4.2.4.5"/></g></svg>