<svg xmlns="http://www.w3.org/2000/svg" width="48" height="48" xmlns:xlink="http://www.w3.org/1999/xlink"><defs><circle id="a" cx="23" cy="23" r="23"/></defs><g fill="none"><g transform="rotate(90 -137 -444)"><use fill="#fff" xlink:href="#a"/><circle cx="23" cy="23" r="23.5" stroke="#C7C7C7"/></g><path fill="#C7C7C7" d="M-596.02-280h3.62c.22 0 .4.18.4.4 0 .12-.05.23-.14.3l-5.58 5.18a.5.5 0 01-.65 0l-5.5-5.17a.396.396 0 01-.03-.56c.07-.1.18-.14.3-.14h3.6v-5.14c-.03-1.67.45-4.44-2-7.86 5.86 0 6.04 5.9 6 7.86 0 1.3-.02 3-.02 5.14zm-15.96-7h-3.62c-.22 0-.4-.18-.4-.4 0-.12.05-.23.14-.3l5.58-5.18a.5.5 0 01.65 0l5.5 5.17c.16.14.18.4.03.56-.07.1-.18.14-.3.14h-3.6v5.14c.03 1.67-.45 4.44 2 7.86-5.86 0-6.04-5.9-6-7.86 0-1.3.02-3 .02-5.14z"/></g></svg>